<?xml version="1.0" encoding="UTF-8"?>
<svg xmlns="http://www.w3.org/2000/svg" width="1400" height="2240" viewBox="-160 -160 1400 2240"><defs></defs><rect x="-160" y="-160" width="1400" height="2240" fill="#d5dbe6"/><path d="M-99.9,60.1 L-52.0,60.4 L-4.0,60.1 L-4.0,80.0 L-52.0,80.5 L-100.0,80.1 Z" fill="#fffbe8" stroke="#13121a" stroke-width="3" stroke-linecap="round" stroke-linejoin="round" /><path d="M30.0,60.0 L78.0,60.2 L126.0,60.0 L126.0,79.9 L78.0,80.1 L30.0,79.9 Z" fill="#fffbe8" stroke="#13121a" stroke-width="3" stroke-linecap="round" stroke-linejoin="round" /><path d="M160.0,60.1 L208.0,60.0 L256.0,60.0 L256.0,79.9 L208.0,80.2 L160.0,80.0 Z" fill="#fffbe8" stroke="#13121a" stroke-width="3" stroke-linecap="round" stroke-linejoin="round" /><path d="M290.1,60.1 L338.0,59.9 L386.0,60.1 L385.9,79.9 L338.0,79.5 L290.0,79.9 Z" fill="#fffbe8" stroke="#13121a" stroke-width="3" stroke-linecap="round" stroke-linejoin="round" /><path d="M419.9,59.8 L468.0,60.1 L515.9,60.1 L516.0,79.9 L468.0,80.3 L419.9,80.2 Z" fill="#fffbe8" stroke="#13121a" stroke-width="3" stroke-linecap="round" stroke-linejoin="round" /><path d="M550.0,60.1 L598.0,59.9 L645.9,60.2 L645.9,79.9 L598.0,80.1 L550.0,80.0 Z" fill="#fffbe8" stroke="#13121a" stroke-width="3" stroke-linecap="round" stroke-linejoin="round" /><path d="M680.0,59.9 L728.0,60.3 L775.9,60.3 L775.9,79.9 L728.0,79.7 L680.1,79.8 Z" fill="#fffbe8" stroke="#13121a" stroke-width="3" stroke-linecap="round" stroke-linejoin="round" /><path d="M810.1,60.1 L858.0,60.6 L906.0,60.0 L906.0,80.1 L858.0,80.0 L810.0,80.1 Z" fill="#fffbe8" stroke="#13121a" stroke-width="3" stroke-linecap="round" stroke-linejoin="round" /><path d="M940.0,60.0 L988.0,59.7 L1036.0,60.1 L1036.0,79.9 L988.0,80.3 L940.0,80.0 Z" fill="#fffbe8" stroke="#13121a" stroke-width="3" stroke-linecap="round" stroke-linejoin="round" /><path d="M1070.0,59.9 L1118.0,59.6 L1166.0,59.9 L1166.1,80.2 L1118.0,80.5 L1070.0,80.0 Z" fill="#fffbe8" stroke="#13121a" stroke-width="3" stroke-linecap="round" stroke-linejoin="round" /><path d="M1200.0,60.1 L1248.0,59.7 L1296.0,60.0 L1296.1,80.2 L1248.0,80.4 L1200.0,79.9 Z" fill="#fffbe8" stroke="#13121a" stroke-width="3" stroke-linecap="round" stroke-linejoin="round" /></svg>