<?xml version="1.0" encoding="UTF-8"?>
<svg xmlns="http://www.w3.org/2000/svg" width="1400" height="2240" viewBox="-160 -160 1400 2240"><defs><clipPath id="c1"><path d="M-160.0,1590.0 L1240.0,1590.0 L1240.0,1660.0 L-160.0,1660.0 Z"/></clipPath><clipPath id="c2"><path d="M-160.0,-160.0 L520.0,-160.0 L-160.0,640.0 Z"/></clipPath><clipPath id="c3"><path d="M1240.0,-160.0 L700.0,-160.0 L1240.0,420.0 Z"/></clipPath></defs><rect x="-160" y="-160" width="1400" height="2240" fill="#d6cfc0"/><path d="M-149.8,-160.0 L-151.3,-67.9 L-150.6,24.3 L-151.9,116.4 L-152.6,208.6 L-151.7,300.7 L-152.7,392.9 L-153.1,485.0 L-153.1,577.1 L-151.8,669.3 L-150.3,761.4 L-151.8,853.6 L-153.2,945.7 L-153.9,1037.9 L-150.9,1130.0" fill="none" stroke="#13121a" stroke-width="2.2" stroke-linecap="round" stroke-linejoin="round" opacity="0.16" /><path d="M-86.0,-160.0 L-87.4,-67.9 L-88.1,24.3 L-86.9,116.4 L-86.0,208.6 L-87.1,300.7 L-87.3,392.9 L-85.7,485.0 L-87.0,577.1 L-87.9,669.3 L-86.1,761.4 L-86.5,853.6 L-88.0,945.7 L-88.7,1037.9 L-86.5,1130.0" fill="none" stroke="#13121a" stroke-width="2.2" stroke-linecap="round" stroke-linejoin="round" opacity="0.16" /><path d="M-22.1,-160.0 L-23.1,-67.9 L-23.2,24.3 L-22.8,116.4 L-23.6,208.6 L-21.8,300.7 L-22.1,392.9 L-21.2,485.0 L-19.9,577.1 L-19.7,669.3 L-21.8,761.4 L-20.6,853.6 L-21.6,945.7 L-20.7,1037.9 L-21.1,1130.0" fill="none" stroke="#13121a" stroke-width="2.2" stroke-linecap="round" stroke-linejoin="round" opacity="0.16" /><path d="M42.1,-160.0 L41.4,-67.9 L42.9,24.3 L43.7,116.4 L44.6,208.6 L42.7,300.7 L43.8,392.9 L42.0,485.0 L41.8,577.1 L42.0,669.3 L43.6,761.4 L42.4,853.6 L42.5,945.7 L43.9,1037.9 L44.2,1130.0" fill="none" stroke="#13121a" stroke-width="2.2" stroke-linecap="round" stroke-linejoin="round" opacity="0.16" /><path d="M105.8,-160.0 L106.9,-67.9 L107.9,24.3 L107.7,116.4 L108.0,208.6 L107.5,300.7 L108.3,392.9 L106.9,485.0 L107.5,577.1 L105.8,669.3 L105.2,761.4 L105.6,853.6 L107.1,945.7 L107.8,1037.9 L106.3,1130.0" fill="none" stroke="#13121a" stroke-width="2.2" stroke-linecap="round" stroke-linejoin="round" opacity="0.16" /><path d="M170.4,-160.0 L168.6,-67.9 L168.9,24.3 L168.5,116.4 L167.9,208.6 L167.5,300.7 L167.8,392.9 L167.8,485.0 L167.9,577.1 L167.8,669.3 L168.7,761.4 L168.3,853.6 L167.2,945.7 L167.9,1037.9 L169.3,1130.0" fill="none" stroke="#13121a" stroke-width="2.2" stroke-linecap="round" stroke-linejoin="round" opacity="0.16" /><path d="M234.7,-160.0 L232.9,-67.9 L234.3,24.3 L234.1,116.4 L235.0,208.6 L233.4,300.7 L234.0,392.9 L234.9,485.0 L233.9,577.1 L233.3,669.3 L234.3,761.4 L233.0,853.6 L232.8,945.7 L233.3,1037.9 L233.2,1130.0" fill="none" stroke="#13121a" stroke-width="2.2" stroke-linecap="round" stroke-linejoin="round" opacity="0.16" /><path d="M298.5,-160.0 L298.0,-67.9 L298.8,24.3 L297.7,116.4 L298.2,208.6 L297.3,300.7 L298.1,392.9 L296.4,485.0 L296.9,577.1 L296.5,669.3 L295.8,761.4 L296.5,853.6 L295.0,945.7 L294.1,1037.9 L296.2,1130.0" fill="none" stroke="#13121a" stroke-width="2.2" stroke-linecap="round" stroke-linejoin="round" opacity="0.16" /><path d="M361.6,-160.0 L362.4,-67.9 L361.5,24.3 L361.4,116.4 L361.9,208.6 L361.0,300.7 L361.9,392.9 L361.9,485.0 L363.1,577.1 L361.7,669.3 L363.4,761.4 L362.3,853.6 L362.7,945.7 L362.3,1037.9 L362.1,1130.0" fill="none" stroke="#13121a" stroke-width="2.2" stroke-linecap="round" stroke-linejoin="round" opacity="0.16" /><path d="M425.6,-160.0 L426.4,-67.9 L427.2,24.3 L427.0,116.4 L426.7,208.6 L425.7,300.7 L424.8,392.9 L425.2,485.0 L424.7,577.1 L425.2,669.3 L427.3,761.4 L428.6,853.6 L429.4,945.7 L428.6,1037.9 L427.2,1130.0" fill="none" stroke="#13121a" stroke-width="2.2" stroke-linecap="round" stroke-linejoin="round" opacity="0.16" /><path d="M490.1,-160.0 L489.7,-67.9 L491.4,24.3 L489.5,116.4 L489.3,208.6 L488.9,300.7 L490.8,392.9 L492.0,485.0 L491.9,577.1 L490.1,669.3 L489.4,761.4 L490.0,853.6 L491.3,945.7 L492.5,1037.9 L491.3,1130.0" fill="none" stroke="#13121a" stroke-width="2.2" stroke-linecap="round" stroke-linejoin="round" opacity="0.16" /><path d="M554.0,-160.0 L555.2,-67.9 L554.4,24.3 L552.8,116.4 L553.5,208.6 L552.5,300.7 L553.1,392.9 L552.5,485.0 L551.5,577.1 L552.7,669.3 L554.0,761.4 L553.3,853.6 L552.8,945.7 L553.2,1037.9 L551.9,1130.0" fill="none" stroke="#13121a" stroke-width="2.2" stroke-linecap="round" stroke-linejoin="round" opacity="0.16" /><path d="M617.9,-160.0 L618.5,-67.9 L618.2,24.3 L617.3,116.4 L619.2,208.6 L620.1,300.7 L618.6,392.9 L617.8,485.0 L618.1,577.1 L618.1,669.3 L617.2,761.4 L617.1,853.6 L619.2,945.7 L620.2,1037.9 L618.5,1130.0" fill="none" stroke="#13121a" stroke-width="2.2" stroke-linecap="round" stroke-linejoin="round" opacity="0.16" /><path d="M682.6,-160.0 L681.3,-67.9 L680.1,24.3 L681.8,116.4 L682.9,208.6 L680.9,300.7 L680.0,392.9 L680.7,485.0 L679.8,577.1 L681.6,669.3 L682.2,761.4 L681.2,853.6 L681.5,945.7 L680.4,1037.9 L679.8,1130.0" fill="none" stroke="#13121a" stroke-width="2.2" stroke-linecap="round" stroke-linejoin="round" opacity="0.16" /><path d="M745.5,-160.0 L747.4,-67.9 L748.2,24.3 L746.9,116.4 L745.5,208.6 L744.7,300.7 L744.3,392.9 L744.9,485.0 L747.1,577.1 L748.3,669.3 L746.7,761.4 L746.7,853.6 L748.2,945.7 L749.3,1037.9 L747.0,1130.0" fill="none" stroke="#13121a" stroke-width="2.2" stroke-linecap="round" stroke-linejoin="round" opacity="0.16" /><path d="M810.1,-160.0 L808.7,-67.9 L810.2,24.3 L810.3,116.4 L810.7,208.6 L809.9,300.7 L809.4,392.9 L809.7,485.0 L809.7,577.1 L810.5,669.3 L808.8,761.4 L808.1,853.6 L808.7,945.7 L810.3,1037.9 L808.9,1130.0" fill="none" stroke="#13121a" stroke-width="2.2" stroke-linecap="round" stroke-linejoin="round" opacity="0.16" /><path d="M874.3,-160.0 L874.9,-67.9 L875.1,24.3 L875.5,116.4 L875.7,208.6 L874.6,300.7 L873.7,392.9 L872.1,485.0 L873.1,577.1 L873.0,669.3 L871.5,761.4 L871.7,853.6 L871.5,945.7 L871.2,1037.9 L872.8,1130.0" fill="none" stroke="#13121a" stroke-width="2.2" stroke-linecap="round" stroke-linejoin="round" opacity="0.16" /><path d="M938.3,-160.0 L938.7,-67.9 L938.0,24.3 L936.9,116.4 L938.4,208.6 L938.1,300.7 L937.4,392.9 L939.3,485.0 L939.3,577.1 L938.2,669.3 L937.7,761.4 L939.5,853.6 L940.3,945.7 L940.9,1037.9 L938.9,1130.0" fill="none" stroke="#13121a" stroke-width="2.2" stroke-linecap="round" stroke-linejoin="round" opacity="0.16" /><path d="M1001.6,-160.0 L1003.0,-67.9 L1001.9,24.3 L1001.0,116.4 L1002.6,208.6 L1002.4,300.7 L1003.3,392.9 L1001.3,485.0 L1001.6,577.1 L1001.8,669.3 L1002.4,761.4 L1000.9,853.6 L1001.0,945.7 L1000.1,1037.9 L1002.7,1130.0" fill="none" stroke="#13121a" stroke-width="2.2" stroke-linecap="round" stroke-linejoin="round" opacity="0.16" /><path d="M1065.7,-160.0 L1067.7,-67.9 L1067.0,24.3 L1065.2,116.4 L1065.3,208.6 L1066.0,300.7 L1064.9,392.9 L1064.7,485.0 L1066.1,577.1 L1065.1,669.3 L1064.6,761.4 L1063.5,853.6 L1063.0,945.7 L1063.8,1037.9 L1064.5,1130.0" fill="none" stroke="#13121a" stroke-width="2.2" stroke-linecap="round" stroke-linejoin="round" opacity="0.16" /><path d="M1129.9,-160.0 L1129.6,-67.9 L1129.4,24.3 L1128.6,116.4 L1128.5,208.6 L1127.9,300.7 L1127.7,392.9 L1128.9,485.0 L1128.1,577.1 L1129.1,669.3 L1130.4,761.4 L1131.4,853.6 L1129.5,945.7 L1130.3,1037.9 L1129.7,1130.0" fill="none" stroke="#13121a" stroke-width="2.2" stroke-linecap="round" stroke-linejoin="round" opacity="0.16" /><path d="M1194.2,-160.0 L1193.7,-67.9 L1192.9,24.3 L1192.5,116.4 L1193.7,208.6 L1193.4,300.7 L1193.5,392.9 L1193.6,485.0 L1194.9,577.1 L1194.2,669.3 L1195.5,761.4 L1195.6,853.6 L1194.3,945.7 L1194.5,1037.9 L1194.3,1130.0" fill="none" stroke="#13121a" stroke-width="2.2" stroke-linecap="round" stroke-linejoin="round" opacity="0.16" /><path d="M-160.0,1130.0 L1240.0,1130.0 L1240.0,1530.0 L-160.0,1530.0 Z" fill="#b9af9c" stroke="none" /><path d="M-137.8,1180.3 L-96.5,1180.4 L-55.0,1180.2 L-13.5,1179.0 L28.2,1179.7 L27.4,1216.2 L27.5,1252.5 L29.0,1288.8 L27.9,1325.0 L27.7,1361.2 L27.1,1397.5 L28.3,1433.8 L27.9,1469.9 L-13.5,1469.3 L-55.0,1469.9 L-96.5,1470.4 L-137.9,1469.9 L-137.5,1433.8 L-137.2,1397.5 L-136.6,1361.2 L-137.6,1325.0 L-138.9,1288.8 L-139.0,1252.5 L-137.7,1216.2 Z" fill="#c4baa7" stroke="#13121a" stroke-width="3.5" stroke-linecap="round" stroke-linejoin="round" /><path d="M71.6,1179.5 L113.5,1178.3 L155.0,1180.0 L196.5,1179.3 L238.3,1179.6 L237.9,1216.2 L237.7,1252.5 L237.8,1288.8 L237.6,1325.0 L237.7,1361.2 L238.2,1397.5 L236.9,1433.8 L237.8,1469.7 L196.5,1468.9 L155.0,1468.4 L113.5,1469.5 L71.8,1470.3 L72.4,1433.8 L72.8,1397.5 L72.8,1361.2 L72.0,1325.0 L70.8,1288.8 L70.7,1252.5 L70.8,1216.2 Z" fill="#c4baa7" stroke="#13121a" stroke-width="3.5" stroke-linecap="round" stroke-linejoin="round" /><path d="M282.3,1180.4 L323.5,1181.5 L365.0,1180.3 L406.5,1180.4 L447.6,1180.4 L448.2,1216.2 L446.9,1252.5 L448.5,1288.8 L449.2,1325.0 L448.8,1361.2 L449.5,1397.5 L448.0,1433.8 L448.3,1470.3 L406.5,1471.6 L365.0,1471.0 L323.5,1471.5 L281.6,1470.5 L282.4,1433.8 L281.0,1397.5 L281.5,1361.2 L282.8,1325.0 L283.4,1288.8 L283.7,1252.5 L283.9,1216.2 Z" fill="#c4baa7" stroke="#13121a" stroke-width="3.5" stroke-linecap="round" stroke-linejoin="round" /><path d="M492.2,1180.3 L533.5,1179.5 L575.0,1179.3 L616.5,1179.1 L658.1,1179.9 L657.4,1216.2 L657.4,1252.5 L657.0,1288.8 L657.3,1325.0 L656.5,1361.2 L655.9,1397.5 L656.9,1433.8 L657.4,1469.4 L616.5,1468.4 L575.0,1469.6 L533.5,1469.3 L492.5,1469.5 L493.9,1433.8 L492.4,1397.5 L492.6,1361.2 L492.7,1325.0 L492.6,1288.8 L493.4,1252.5 L492.1,1216.2 Z" fill="#c4baa7" stroke="#13121a" stroke-width="3.5" stroke-linecap="round" stroke-linejoin="round" /><path d="M701.8,1179.8 L743.5,1180.6 L785.0,1179.4 L826.5,1178.6 L868.6,1179.3 L870.0,1216.2 L868.0,1252.5 L868.9,1288.8 L868.5,1325.0 L868.2,1361.2 L868.7,1397.5 L867.9,1433.8 L867.8,1469.8 L826.5,1469.9 L785.0,1470.8 L743.5,1469.4 L702.1,1469.9 L701.9,1433.8 L701.9,1397.5 L701.5,1361.2 L701.0,1325.0 L702.5,1288.8 L701.2,1252.5 L702.3,1216.2 Z" fill="#c4baa7" stroke="#13121a" stroke-width="3.5" stroke-linecap="round" stroke-linejoin="round" /><path d="M911.6,1179.5 L953.5,1180.2 L995.0,1180.7 L1036.5,1179.7 L1078.4,1179.6 L1077.4,1216.2 L1078.4,1252.5 L1079.5,1288.8 L1077.6,1325.0 L1078.4,1361.2 L1077.4,1397.5 L1078.6,1433.8 L1078.4,1470.4 L1036.5,1471.8 L995.0,1471.6 L953.5,1469.9 L912.2,1469.8 L912.6,1433.8 L912.7,1397.5 L911.1,1361.2 L910.9,1325.0 L912.4,1288.8 L913.3,1252.5 L912.7,1216.2 Z" fill="#c4baa7" stroke="#13121a" stroke-width="3.5" stroke-linecap="round" stroke-linejoin="round" /><path d="M1122.3,1180.4 L1163.5,1180.0 L1205.0,1180.7 L1246.5,1179.3 L1287.9,1180.2 L1287.6,1216.2 L1287.7,1252.5 L1286.7,1288.8 L1286.8,1325.0 L1286.7,1361.2 L1287.5,1397.5 L1286.9,1433.8 L1288.0,1470.0 L1246.5,1471.0 L1205.0,1471.6 L1163.5,1470.7 L1121.7,1470.3 L1121.1,1433.8 L1122.3,1397.5 L1123.0,1361.2 L1121.9,1325.0 L1122.0,1288.8 L1122.3,1252.5 L1122.0,1216.2 Z" fill="#c4baa7" stroke="#13121a" stroke-width="3.5" stroke-linecap="round" stroke-linejoin="round" /><path d="M-160.0,1112.0 L-125.9,1112.8 L-91.7,1113.3 L-57.6,1112.0 L-23.4,1111.3 L10.7,1112.4 L44.9,1111.8 L79.0,1111.1 L113.2,1112.4 L147.3,1113.1 L181.5,1112.4 L215.6,1112.7 L249.8,1112.9 L283.9,1112.5 L318.0,1111.5 L352.2,1112.4 L386.3,1113.1 L420.5,1112.2 L454.6,1111.9 L488.8,1111.1 L522.9,1110.4 L557.1,1111.8 L591.2,1111.0 L625.4,1111.0 L659.5,1111.8 L693.7,1110.9 L727.8,1110.7 L762.0,1111.4 L796.1,1111.4 L830.2,1111.9 L864.4,1111.2 L898.5,1112.3 L932.7,1113.1 L966.8,1113.3 L1001.0,1113.6 L1035.1,1113.6 L1069.3,1112.0 L1103.4,1112.4 L1137.6,1111.7 L1171.7,1112.2 L1205.9,1112.2 L1240.1,1111.9 L1240.2,1138.3 L1205.9,1139.2 L1171.7,1139.6 L1137.6,1139.0 L1103.4,1139.1 L1069.3,1137.9 L1035.1,1137.9 L1001.0,1138.2 L966.8,1139.1 L932.7,1139.0 L898.5,1138.5 L864.4,1139.0 L830.2,1138.8 L796.1,1139.4 L762.0,1138.9 L727.8,1138.4 L693.7,1139.1 L659.5,1138.8 L625.4,1138.6 L591.2,1137.6 L557.1,1137.8 L522.9,1136.9 L488.8,1137.3 L454.6,1136.8 L420.5,1136.7 L386.3,1137.1 L352.2,1136.5 L318.0,1136.7 L283.9,1137.5 L249.8,1137.6 L215.6,1138.5 L181.5,1138.3 L147.3,1138.4 L113.2,1137.9 L79.0,1137.7 L44.9,1137.6 L10.7,1137.0 L-23.4,1136.6 L-57.6,1137.7 L-91.7,1137.9 L-125.9,1137.5 L-159.7,1137.6 Z" fill="#e3dccb" stroke="#13121a" stroke-width="5" stroke-linecap="round" stroke-linejoin="round" /><path d="M-159.7,1520.3 L-125.9,1520.1 L-91.7,1520.4 L-57.6,1519.9 L-23.4,1520.5 L10.7,1521.1 L44.9,1520.9 L79.0,1521.0 L113.2,1521.1 L147.3,1519.7 L181.5,1520.9 L215.6,1520.4 L249.8,1519.8 L283.9,1519.9 L318.0,1520.9 L352.2,1521.5 L386.3,1521.9 L420.5,1521.9 L454.6,1520.7 L488.8,1521.2 L522.9,1519.6 L557.1,1518.8 L591.2,1519.9 L625.4,1520.6 L659.5,1520.5 L693.7,1520.4 L727.8,1521.0 L762.0,1521.1 L796.1,1520.7 L830.2,1521.3 L864.4,1521.7 L898.5,1520.8 L932.7,1520.3 L966.8,1520.6 L1001.0,1520.0 L1035.1,1519.7 L1069.3,1519.8 L1103.4,1519.7 L1137.6,1519.7 L1171.7,1520.3 L1205.9,1519.6 L1240.3,1519.7 L1240.4,1555.0 L1240.3,1590.3 L1205.9,1591.0 L1171.7,1591.3 L1137.6,1591.0 L1103.4,1589.7 L1069.3,1590.9 L1035.1,1590.3 L1001.0,1591.2 L966.8,1590.8 L932.7,1591.2 L898.5,1589.8 L864.4,1588.9 L830.2,1589.6 L796.1,1590.3 L762.0,1590.3 L727.8,1589.5 L693.7,1590.5 L659.5,1590.3 L625.4,1589.9 L591.2,1588.9 L557.1,1589.0 L522.9,1589.2 L488.8,1589.8 L454.6,1589.5 L420.5,1589.3 L386.3,1590.3 L352.2,1589.5 L318.0,1588.9 L283.9,1589.2 L249.8,1590.1 L215.6,1589.0 L181.5,1590.3 L147.3,1590.9 L113.2,1589.9 L79.0,1590.4 L44.9,1590.0 L10.7,1589.3 L-23.4,1588.8 L-57.6,1589.5 L-91.7,1589.5 L-125.9,1590.5 L-160.2,1590.2 L-160.7,1555.0 Z" fill="#e6dfd0" stroke="#13121a" stroke-width="5" stroke-linecap="round" stroke-linejoin="round" /><path d="M-160.0,1590.0 L1240.0,1590.0 L1240.0,2080.0 L-160.0,2080.0 Z" fill="#a98859" stroke="none" /><path d="M-160.0,1639.9 L-77.6,1640.0 L4.7,1639.7 L87.1,1639.3 L169.4,1639.3 L251.8,1638.4 L334.1,1639.2 L416.5,1638.7 L498.8,1639.2 L581.2,1639.9 L663.5,1641.3 L745.9,1641.4 L828.2,1641.3 L910.6,1639.7 L992.9,1639.4 L1075.3,1639.6 L1157.6,1640.1 L1240.0,1639.5" fill="none" stroke="#13121a" stroke-width="4" stroke-linecap="round" stroke-linejoin="round" /><path d="M-100.0,1640.0 L-104.0,1730.0" fill="none" stroke="#13121a" stroke-width="3.5" stroke-linecap="round" stroke-linejoin="round" /><path d="M130.0,1640.0 L126.0,1730.0" fill="none" stroke="#13121a" stroke-width="3.5" stroke-linecap="round" stroke-linejoin="round" /><path d="M360.0,1640.0 L356.0,1730.0" fill="none" stroke="#13121a" stroke-width="3.5" stroke-linecap="round" stroke-linejoin="round" /><path d="M590.0,1640.0 L586.0,1730.0" fill="none" stroke="#13121a" stroke-width="3.5" stroke-linecap="round" stroke-linejoin="round" /><path d="M820.0,1640.0 L816.0,1730.0" fill="none" stroke="#13121a" stroke-width="3.5" stroke-linecap="round" stroke-linejoin="round" /><path d="M1050.0,1640.0 L1046.0,1730.0" fill="none" stroke="#13121a" stroke-width="3.5" stroke-linecap="round" stroke-linejoin="round" /><path d="M-160.0,1729.9 L-77.6,1729.5 L4.7,1729.0 L87.1,1730.0 L169.4,1730.3 L251.8,1729.1 L334.1,1730.7 L416.5,1730.2 L498.8,1730.0 L581.2,1729.8 L663.5,1731.1 L745.9,1731.4 L828.2,1731.4 L910.6,1730.4 L992.9,1729.0 L1075.3,1730.6 L1157.6,1731.1 L1240.0,1730.0" fill="none" stroke="#13121a" stroke-width="4" stroke-linecap="round" stroke-linejoin="round" /><path d="M-60.0,1730.0 L-56.0,1832.0" fill="none" stroke="#13121a" stroke-width="3.5" stroke-linecap="round" stroke-linejoin="round" /><path d="M170.0,1730.0 L174.0,1832.0" fill="none" stroke="#13121a" stroke-width="3.5" stroke-linecap="round" stroke-linejoin="round" /><path d="M400.0,1730.0 L404.0,1832.0" fill="none" stroke="#13121a" stroke-width="3.5" stroke-linecap="round" stroke-linejoin="round" /><path d="M630.0,1730.0 L634.0,1832.0" fill="none" stroke="#13121a" stroke-width="3.5" stroke-linecap="round" stroke-linejoin="round" /><path d="M860.0,1730.0 L864.0,1832.0" fill="none" stroke="#13121a" stroke-width="3.5" stroke-linecap="round" stroke-linejoin="round" /><path d="M1090.0,1730.0 L1094.0,1832.0" fill="none" stroke="#13121a" stroke-width="3.5" stroke-linecap="round" stroke-linejoin="round" /><path d="M-160.0,1840.7 L-77.6,1838.4 L4.7,1838.2 L87.1,1838.3 L169.4,1837.8 L251.8,1839.8 L334.1,1840.3 L416.5,1841.3 L498.8,1840.5 L581.2,1839.5 L663.5,1839.9 L745.9,1841.1 L828.2,1839.5 L910.6,1839.1 L992.9,1840.6 L1075.3,1841.1 L1157.6,1841.8 L1240.0,1840.0" fill="none" stroke="#13121a" stroke-width="4" stroke-linecap="round" stroke-linejoin="round" /><path d="M-100.0,1840.0 L-88.0,1954.0" fill="none" stroke="#13121a" stroke-width="3.5" stroke-linecap="round" stroke-linejoin="round" /><path d="M130.0,1840.0 L142.0,1954.0" fill="none" stroke="#13121a" stroke-width="3.5" stroke-linecap="round" stroke-linejoin="round" /><path d="M360.0,1840.0 L372.0,1954.0" fill="none" stroke="#13121a" stroke-width="3.5" stroke-linecap="round" stroke-linejoin="round" /><path d="M590.0,1840.0 L602.0,1954.0" fill="none" stroke="#13121a" stroke-width="3.5" stroke-linecap="round" stroke-linejoin="round" /><path d="M820.0,1840.0 L832.0,1954.0" fill="none" stroke="#13121a" stroke-width="3.5" stroke-linecap="round" stroke-linejoin="round" /><path d="M1050.0,1840.0 L1062.0,1954.0" fill="none" stroke="#13121a" stroke-width="3.5" stroke-linecap="round" stroke-linejoin="round" /><path d="M-160.0,1979.8 L-77.6,1980.8 L4.7,1980.7 L87.1,1980.8 L169.4,1979.2 L251.8,1980.1 L334.1,1980.7 L416.5,1979.5 L498.8,1979.9 L581.2,1980.6 L663.5,1980.0 L745.9,1979.9 L828.2,1980.9 L910.6,1981.2 L992.9,1981.1 L1075.3,1980.1 L1157.6,1979.9 L1240.0,1979.6" fill="none" stroke="#13121a" stroke-width="4" stroke-linecap="round" stroke-linejoin="round" /><path d="M-59.9,1980.0 L-51.1,2043.2 L-40.0,2106.0" fill="none" stroke="#13121a" stroke-width="3.5" stroke-linecap="round" stroke-linejoin="round" /><path d="M170.0,1980.0 L180.3,2043.0 L189.8,2106.0" fill="none" stroke="#13121a" stroke-width="3.5" stroke-linecap="round" stroke-linejoin="round" /><path d="M400.0,1980.0 L409.1,2043.1 L420.4,2105.9" fill="none" stroke="#13121a" stroke-width="3.5" stroke-linecap="round" stroke-linejoin="round" /><path d="M630.2,1980.0 L639.9,2043.0 L650.1,2106.0" fill="none" stroke="#13121a" stroke-width="3.5" stroke-linecap="round" stroke-linejoin="round" /><path d="M860.1,1980.0 L869.3,2043.1 L880.6,2105.9" fill="none" stroke="#13121a" stroke-width="3.5" stroke-linecap="round" stroke-linejoin="round" /><path d="M1089.7,1980.1 L1100.8,2042.9 L1109.5,2106.1" fill="none" stroke="#13121a" stroke-width="3.5" stroke-linecap="round" stroke-linejoin="round" /><g clip-path="url(#c1)"><path d="M1140.1,910.5 L1207.2,1291.7 L1273.9,1672.9 L1340.6,2054.2 M1111.9,804.2 L1184.3,1217.9 L1258.7,1631.2 L1330.2,2045.1 M1115.7,856.6 L1191.9,1289.8 L1267.0,1723.3 L1343.5,2156.5 M1104.3,820.6 L1175.9,1242.4 L1250.9,1663.6 L1324.0,2085.1 M1111.4,915.2 L1180.7,1306.2 L1250.4,1697.1 L1317.6,2088.5 M1096.1,875.4 L1172.8,1303.8 L1246.8,1732.6 L1322.9,2161.1 M1100.5,945.1 L1171.0,1347.9 L1243.4,1750.4 L1313.3,2153.3 M1072.6,845.2 L1150.4,1286.9 L1228.8,1728.5 L1306.4,2170.3 M1067.1,850.9 L1142.8,1290.4 L1222.5,1729.3 L1300.1,2168.5 M1064.3,937.4 L1138.1,1354.8 L1212.9,1772.1 L1285.8,2189.6 M1048.5,891.7 L1127.4,1329.7 L1203.8,1768.1 L1280.1,2206.5 M1056.9,969.8 L1124.3,1351.8 L1191.2,1733.8 L1258.6,2115.8 M1021.3,870.0 L1100.0,1311.3 L1178.6,1752.6 L1257.3,2194.0 M1006.0,812.2 L1086.2,1268.6 L1165.9,1725.2 L1246.9,2181.5 M1026.3,983.4 L1095.3,1386.3 L1166.4,1788.8 L1240.0,2190.8 M997.5,871.5 L1069.6,1287.2 L1144.8,1702.3 L1216.0,2118.1 M1001.9,957.3 L1075.0,1376.9 L1151.4,1795.9 L1224.6,2215.4 M994.9,979.0 L1068.7,1395.9 L1142.3,1812.7 L1214.9,2229.8 M961.6,830.3 L1035.4,1245.6 L1106.8,1661.3 L1182.7,2076.2 M952.9,835.0 L1029.9,1267.4 L1105.1,1700.2 L1181.9,2132.6 M971.4,998.0 L1036.2,1358.2 L1098.1,1718.9 L1163.9,2079.0 M946.5,916.1 L1019.7,1328.3 L1093.1,1740.4 L1166.2,2152.6 M940.5,944.6 L1008.6,1319.7 L1073.8,1695.3 L1141.4,2070.4 M931.4,945.7 L1002.1,1341.5 L1070.6,1737.7 L1139.5,2133.8 M912.1,904.6 L986.5,1334.9 L1064.0,1764.7 L1138.9,2195.0 M914.4,980.6 L985.8,1384.7 L1057.5,1788.7 L1129.0,2192.8 M899.2,956.3 L965.0,1335.3 L1032.9,1713.9 L1099.5,2092.7 M874.9,878.7 L945.1,1285.9 L1019.0,1692.3 L1088.4,2099.6 M857.9,838.6 L932.7,1264.7 L1007.8,1690.7 L1081.8,2116.9 M874.9,1003.0 L942.6,1389.7 L1012.5,1776.0 L1078.8,2162.9 M852.9,941.7 L927.8,1380.1 L1004.9,1818.1 L1084.3,2255.7 M838.2,934.7 L909.6,1334.6 L978.2,1735.0 L1049.6,2135.0 M831.7,953.6 L898.7,1345.3 L969.5,1736.4 L1038.8,2127.7 M808.3,898.3 L886.5,1336.2 L965.2,1774.0 L1042.5,2212.0 M820.1,1024.7 L889.9,1433.9 L962.0,1842.6 L1034.1,2251.3 M804.0,998.4 L874.8,1407.7 L947.5,1816.6 L1017.7,2226.1 M781.0,937.1 L850.3,1328.1 L918.7,1719.2 L988.5,2110.1 M785.4,1016.9 L857.2,1427.4 L929.0,1837.9 L1003.1,2248.0 M768.0,983.3 L838.8,1390.0 L911.0,1796.4 L980.4,2203.3 M741.8,976.5 L809.2,1371.0 L880.7,1764.8 L948.5,2159.2 M719.9,916.8 L792.8,1343.9 L870.9,1770.2 L946.0,2196.9 M723.9,1032.6 L797.4,1449.8 L873.7,1866.6 L944.4,2284.3 M680.1,927.4 L749.5,1327.5 L819.5,1727.5 L889.9,2127.4 M654.8,881.1 L728.9,1299.9 L802.9,1718.7 L878.8,2137.3 M654.6,947.3 L723.6,1342.9 L794.0,1738.3 L863.7,2133.8 M643.4,968.7 L718.6,1389.6 L790.2,1811.2 L867.4,2231.8 M645.0,1050.0 L714.8,1440.4 L784.1,1830.9 L852.3,2221.5 M621.5,997.4 L694.5,1414.1 L768.8,1830.6 L840.7,2247.6 M617.3,1046.1 L686.0,1444.8 L757.5,1843.0 L826.0,2241.7 M601.9,1039.6 L672.7,1457.8 L748.6,1875.2 L820.1,2293.3 M560.8,890.2 L642.4,1342.1 L719.6,1794.7 L800.6,2246.7 M575.9,1063.5 L642.9,1440.3 L707.9,1817.5 L775.3,2194.2 M554.2,1024.5 L622.2,1408.0 L690.3,1791.5 L757.0,2175.3 M546.6,1057.4 L613.5,1435.0 L682.0,1812.2 L747.2,2190.0 M510.7,919.8 L582.0,1333.5 L656.4,1746.7 L729.0,2160.2 M499.8,941.5 L572.5,1365.3 L647.0,1788.8 L722.1,2212.1 M487.5,967.4 L556.3,1361.5 L628.0,1755.1 L695.7,2149.4 M470.2,975.7 L543.4,1381.9 L616.0,1788.3 L685.6,2195.1 M442.2,910.4 L517.6,1345.2 L595.1,1779.6 L672.1,2214.1 M452.1,1067.8 L521.1,1446.3 L586.8,1825.4 L652.4,2204.5 M436.5,1075.8 L508.0,1481.6 L578.4,1887.6 L650.3,2293.3 M391.5,925.0 L470.9,1378.7 L550.2,1832.4 L630.6,2285.9 M377.2,936.3 L449.9,1355.3 L524.9,1774.0 L598.1,2192.9 M370.3,1018.3 L448.3,1460.1 L526.0,1901.9 L604.6,2343.5 M356.3,1045.2 L422.9,1426.4 L490.8,1807.4 L558.1,2188.5 M304.9,971.7 L384.9,1421.3 L463.6,1871.1 L542.3,2321.0 M283.1,951.9 L356.5,1365.1 L428.5,1778.6 L501.5,2191.9 M274.3,998.9 L345.7,1408.7 L420.1,1818.1 L491.5,2227.9 M276.5,1099.5 L344.8,1497.0 L414.9,1894.2 L485.6,2291.3 M250.9,1057.8 L320.2,1446.5 L387.5,1835.5 L456.9,2224.2 M209.3,1055.6 L279.5,1449.4 L346.3,1843.9 L417.0,2237.7 M178.9,1006.5 L251.6,1422.7 L326.4,1838.5 L399.6,2254.6 M181.2,1121.8 L254.9,1535.0 L327.1,1948.5 L400.7,2361.8 M160.3,1119.4 L226.8,1491.5 L292.2,1863.8 L358.7,2236.0 M144.7,1142.5 L216.8,1545.6 L286.4,1949.1 L356.7,2352.5 M120.4,1124.2 L194.3,1537.6 L267.7,1951.0 L339.9,2364.6 M100.1,1120.3 L173.7,1536.1 L245.5,1952.2 L319.0,2368.0 M75.9,1130.4 L145.1,1512.2 L211.7,1894.4 L279.1,2276.5 M33.5,1151.3 L98.8,1514.2 L162.3,1877.4 L224.6,2240.8 M13.6,1153.5 L81.4,1538.1 L147.3,1923.0 L215.1,2307.6 M-33.1,1043.9 L46.2,1492.2 L124.5,1940.7 L204.0,2388.9 M-56.7,1041.3 L18.9,1472.2 L95.7,1902.9 L172.2,2333.6 M-88.6,1011.6 L-13.4,1428.4 L58.8,1845.8 L134.2,2262.6 M-86.9,1142.7 L-14.8,1545.8 L56.3,1949.1 L127.7,2352.4 M-114.2,1117.5 L-43.6,1515.9 L25.9,1914.5 L96.7,2312.9 M-152.1,1019.2 L-76.1,1461.9 L4.0,1903.9 L81.5,2346.3 M-164.7,1079.0 L-85.1,1527.3 L-6.0,1975.7 L73.1,2424.1 M-193.5,1081.5 L-116.8,1518.4 L-39.0,1955.2 L37.8,2392.1 M-202.5,1155.5 L-129.3,1566.3 L-55.8,1977.0 L15.5,2388.1 M-227.9,1149.5 L-161.8,1525.7 L-95.5,1901.9 L-27.1,2277.8 M-254.2,1160.5 L-181.7,1554.5 L-113.4,1949.2 L-44.2,2343.7 M-271.6,1206.9 L-206.1,1581.5 L-140.7,1956.2 L-73.6,2330.5" fill="none" stroke="#13121a" stroke-width="2.4" stroke-linecap="round" opacity="0.55"/></g><g clip-path="url(#c2)"><path d="M177.4,-485.5 L403.1,-285.1 L627.3,-83.0 L851.3,119.2 M213.3,-444.0 L445.1,-236.6 L675.1,-27.1 L907.6,179.7 M144.2,-497.8 L391.1,-274.8 L637.9,-51.8 L885.5,170.3 M183.9,-442.1 L417.3,-231.5 L652.1,-22.4 L885.1,188.6 M146.8,-466.0 L392.5,-247.3 L635.5,-25.5 L880.1,194.4 M143.1,-461.0 L379.9,-248.3 L615.5,-34.3 L852.3,178.4 M201.8,-397.8 L419.5,-199.7 L639.2,-3.9 L857.9,193.1 M120.4,-459.1 L378.9,-225.2 L638.5,7.6 L896.6,242.1 M162.6,-410.2 L404.1,-191.2 L645.3,28.0 L887.5,246.2 M122.2,-429.7 L370.6,-206.5 L618.8,16.9 L868.0,239.2 M106.8,-433.0 L339.2,-225.6 L570.2,-16.7 L802.6,190.6 M112.6,-416.3 L365.0,-190.1 L617.9,35.4 L868.2,264.0 M97.2,-415.8 L347.8,-190.6 L599.5,33.4 L848.6,260.3 M154.2,-353.0 L381.5,-148.0 L610.9,54.7 L836.4,261.7 M94.4,-394.6 L331.7,-183.2 L566.5,31.1 L803.2,243.1 M134.0,-347.0 L372.4,-133.7 L610.2,80.2 L846.9,295.3 M96.7,-366.7 L327.2,-158.8 L557.3,49.5 L788.4,256.7 M46.3,-396.4 L284.2,-184.5 L520.1,29.5 L757.4,242.1 M84.5,-348.4 L300.1,-152.3 L517.5,42.0 L733.1,238.1 M92.3,-322.8 L324.7,-117.6 L553.7,91.4 L783.6,299.4 M34.3,-362.3 L281.2,-139.1 L528.9,83.1 L776.1,305.9 M86.9,-299.4 L311.3,-97.7 L536.5,103.2 L758.8,307.2 M92.3,-280.5 L314.7,-82.3 L534.4,118.7 L757.4,316.2 M60.3,-293.6 L291.0,-84.9 L522.6,122.6 L753.1,331.4 M63.9,-271.3 L288.2,-68.8 L513.0,133.0 L738.2,334.4 M0.9,-309.1 L250.5,-85.8 L499.5,138.0 L748.5,361.9 M58.7,-240.7 L263.3,-57.8 L466.9,126.2 L670.1,310.7 M33.5,-226.3 L255.2,-26.6 L475.9,174.3 L697.7,374.0 M18.9,-220.3 L239.5,-20.3 L461.0,178.7 L682.3,378.0 M-77.3,-267.8 L161.6,-52.2 L401.4,162.5 L641.0,377.4 M-88.7,-257.2 L175.8,-20.1 L439.4,218.0 L704.1,454.8 M-23.9,-175.4 L210.6,36.6 L446.7,246.7 L680.3,459.6 M-18.5,-151.7 L195.3,44.4 L410.9,238.6 L628.1,431.0 M-69.6,-173.9 L179.8,50.2 L427.2,276.5 L676.7,500.6 M-111.1,-187.0 L114.2,16.8 L340.5,219.6 L565.8,423.4 M-63.6,-117.4 L145.0,70.7 L353.7,258.8 L563.1,446.0 M-159.1,-175.6 L75.3,36.3 L311.4,246.1 L546.6,457.1 M-154.0,-146.5 L87.2,71.1 L327.9,289.2 L569.9,505.9 M-149.0,-112.6 L78.1,94.2 L308.4,297.5 L536.1,503.6 M-177.7,-112.8 L48.5,92.6 L277.1,295.2 L503.3,500.6 M-127.2,-42.6 L105.2,167.3 L337.2,377.6 L570.2,586.8 M-180.4,-62.5 L42.5,135.8 L263.7,336.0 L486.3,534.7 M-224.0,-71.0 L11.8,139.4 L246.4,351.2 L482.0,561.8 M-233.9,-54.5 L13.2,167.3 L260.9,388.4 L505.6,612.6 M-187.2,18.1 L45.3,226.8 L277.7,435.8 L508.9,645.9 M-213.9,19.3 L7.6,218.3 L227.0,419.7 L449.1,618.0 M-214.8,54.8 L23.6,269.1 L262.1,483.4 L501.1,697.1 M-271.9,34.1 L-37.5,245.7 L197.9,456.0 L431.9,667.9 M-293.4,43.0 L-64.8,249.6 L164.5,455.5 L392.7,662.5 M-296.5,76.4 L-63.8,284.9 L168.6,493.6 L401.0,702.3 M-346.7,65.6 L-85.6,298.9 L175.4,532.2 L435.5,766.5 M-337.1,102.8 L-109.2,306.8 L117.5,512.2 L344.8,716.9 M-357.5,116.9 L-121.0,328.7 L116.0,540.0 L350.0,754.7 M-394.1,119.6 L-139.4,346.7 L114.6,574.6 L366.3,805.0 M-354.6,194.4 L-127.7,400.2 L99.7,605.5 L327.2,810.7 M-439.0,155.8 L-194.9,375.4 L49.7,594.4 L292.9,815.1 M-471.2,160.0 L-216.8,388.7 L35.9,619.5 L291.7,846.7 M-437.1,236.2 L-192.5,459.5 L55.0,679.6 L299.8,902.7 M-471.4,251.1 L-251.1,447.6 L-32.9,646.3 L187.0,843.1 M-508.5,261.1 L-283.2,464.8 L-58.2,668.9 L168.1,871.5 M-534.9,278.6 L-306.0,486.2 L-75.5,692.1 L153.3,899.8 M-504.5,354.1 L-289.1,546.9 L-74.4,740.5 L141.0,933.3 M-608.6,304.2 L-363.1,524.3 L-117.6,744.3 L126.4,965.9" fill="none" stroke="#13121a" stroke-width="2.4" stroke-linecap="round" opacity="0.5"/></g><g clip-path="url(#c3)"><path d="M1480.3,223.2 L1318.9,368.6 L1156.2,512.5 L994.4,657.4 M1520.8,176.0 L1333.2,342.3 L1147.3,510.4 L960.0,677.0 M1497.9,182.6 L1307.4,354.2 L1116.4,525.3 L926.6,697.7 M1464.0,200.7 L1294.8,353.7 L1127.0,508.2 L957.6,660.9 M1476.6,180.3 L1302.0,336.6 L1129.0,494.7 L955.4,652.0 M1500.4,146.7 L1311.1,316.2 L1122.3,486.1 L934.2,656.8 M1502.7,132.8 L1305.9,309.1 L1110.8,487.3 L913.4,662.9 M1503.8,122.4 L1300.9,304.3 L1098.3,486.6 L895.7,668.9 M1434.2,173.3 L1254.1,333.6 L1075.6,495.9 L896.0,656.8 M1480.1,115.1 L1291.8,288.3 L1100.4,458.1 L910.3,629.3 M1432.7,144.8 L1249.0,311.1 L1064.0,476.0 L880.4,642.4 M1432.4,132.6 L1252.5,292.0 L1074.8,454.0 L895.3,614.0 M1438.6,113.4 L1247.4,284.3 L1057.5,456.7 L866.6,628.1 M1426.9,110.0 L1243.1,277.2 L1056.5,441.2 L872.9,608.6 M1401.1,117.0 L1230.1,273.8 L1056.6,427.9 L883.4,582.3 M1417.9,89.8 L1248.1,241.3 L1077.6,391.9 L908.5,544.2 M1420.2,70.9 L1249.3,226.2 L1077.2,380.1 L906.3,535.4 M1401.5,69.7 L1234.0,219.6 L1066.6,369.6 L899.3,519.6 M1416.9,39.9 L1217.0,220.4 L1015.7,399.4 L816.5,580.7 M1386.5,50.8 L1209.8,210.5 L1031.6,368.5 L854.0,527.3 M1365.0,53.0 L1191.6,209.4 L1018.0,365.6 L842.9,520.2 M1403.4,-3.3 L1222.9,158.0 L1044.6,321.9 L863.1,482.2 M1341.7,35.9 L1162.2,196.9 L983.5,358.8 L802.9,518.7 M1322.1,33.2 L1153.8,187.8 L984.0,340.9 L813.7,493.4 M1362.1,-23.0 L1187.8,135.4 L1013.6,293.9 L837.2,449.9 M1352.1,-33.3 L1156.9,142.7 L961.6,318.6 L766.5,494.8 M1329.7,-53.5 L1138.6,118.6 L947.0,290.0 L757.5,463.8 M1286.6,-66.0 L1104.1,101.0 L919.5,265.6 L736.1,431.5 M1243.5,-51.5 L1081.5,95.0 L919.8,241.9 L756.7,387.2 M1230.5,-66.4 L1051.5,91.0 L874.7,250.9 L698.6,411.6 M1266.9,-130.4 L1071.8,46.7 L875.8,222.8 L680.5,399.7 M1216.5,-112.4 L1048.4,35.9 L883.1,187.5 L716.9,338.0 M1203.3,-134.9 L1035.6,18.4 L866.4,170.1 L697.3,321.9 M1214.7,-168.6 L1028.0,1.1 L839.2,168.4 L652.2,337.7 M1197.8,-184.4 L1019.6,-22.7 L841.0,138.6 L661.7,299.1 M1180.4,-202.9 L1004.7,-45.4 L829.7,113.0 L654.4,271.0 M1181.5,-234.6 L1004.6,-74.1 L826.9,85.4 L650.5,246.4 M1104.1,-197.0 L922.4,-34.7 L740.4,127.2 L561.0,291.9 M1115.1,-273.9 L922.1,-98.4 L726.3,74.1 L533.9,250.3 M1079.6,-284.5 L898.6,-120.7 L718.1,43.8 L535.4,205.8 M1070.1,-314.0 L896.6,-158.3 L723.2,-2.4 L551.1,155.1 M1021.8,-306.0 L844.5,-145.7 L668.2,15.7 L489.2,174.1 M1025.3,-351.4 L834.7,-176.3 L642.3,-3.3 L448.3,168.0 M1014.4,-381.2 L839.5,-224.9 L666.1,-67.1 L490.9,88.8 M951.6,-372.3 L768.9,-208.2 L585.1,-45.3 L402.4,118.9 M943.0,-406.9 L779.3,-259.1 L614.5,-112.5 L450.7,35.2" fill="none" stroke="#13121a" stroke-width="2.4" stroke-linecap="round" opacity="0.5"/></g></svg>