<?xml version="1.0" encoding="UTF-8"?>
<svg width="1136px" height="1533px" viewBox="0 0 1136 1533" version="1.1" xmlns="http://www.w3.org/2000/svg" xmlns:xlink="http://www.w3.org/1999/xlink">
    <!-- Generator: Sketch 62 (91390) - https://sketch.com -->
    <title>a mono/bust</title>
    <desc>Created with Sketch.</desc>
    <g id="a-mono/bust" stroke="none" stroke-width="1" fill="none" fill-rule="evenodd">
        <g id="body/mono/Tee-1" transform="translate(147.000000, 639.000000)"></g>
        <g id="head/mono/Bun-2" transform="translate(372.000000, 180.000000)">
        <path d="M431.9006,270.053 C428.1106,207.851 407.9266,137.33 348.5226,106.79 C217.5636,54.232 45.3796,186.588 36.2636,321.8 C33.0856,368.084 58.7836,418.659 105.7446,431.527 C116.1856,445.36 131.9756,453.808 147.5606,461.14 C333.1876,557.447 453.0946,479.16 431.9006,270.053 L431.9006,270.053 Z" id="🎨-Background" fill="#FFFFFF"></path>
        <path d="M474.1891,231.3601 C467.6291,213.1401 460.6991,195.0601 453.4091,177.1201 C446.3091,159.6601 439.896026,141.822713 431.0791,125.1901 C378.4191,25.8501 282.6591,25.8501 233.1591,38.8301 C207.4891,27.7701 159.408421,30.8898441 132.6791,40.8701 C89.4071,57.0271 36.6581,120.5851 18.6231,149.1411 C-21.1959,212.1901 -46.0459,296.1071 -19.5959,368.9631 C-16.1389,378.4851 -11.7299,387.3041 -6.7659,395.8031 C-9.8929,400.0411 -13.4919,404.0551 -17.4789,407.9991 C-29.3269,419.7211 -41.1749,431.0571 -51.4099,444.2781 C-61.5809,457.4171 -70.0129,471.3891 -76.2899,486.7941 C-88.1259,515.8461 -88.6959,548.7421 -73.0479,576.4631 C-59.4339,600.5831 -35.3169,618.5441 -8.1459,620.2571 C-6.7509,620.4511 -5.3539,620.6291 -3.9509,620.7701 C-0.3509,626.7001 4.0391,632.1601 9.0491,636.9201 C24.3991,651.5201 60.9891,659.0101 81.8591,659.4901 C82.9291,660.3501 84.0091,661.2101 85.0891,662.0601 C97.8591,672.1101 111.2591,682.2501 125.9191,689.4001 C135.8491,694.2501 148.8691,698.3001 159.2291,694.8001 C163.9291,697.9401 171.6391,697.2801 176.2991,694.7101 C183.9591,690.4901 190.1891,682.8901 193.9791,675.1101 C203.1691,656.2201 200.9591,635.5501 198.5991,615.3701 C195.9991,593.0801 193.4991,570.7801 190.9591,548.4901 C188.9691,531.0601 186.8891,513.3401 181.5891,496.5501 C178.8491,487.8501 175.2591,479.4901 170.6191,471.6301 C170.7391,470.9701 170.7191,470.3101 170.5291,469.6901 C169.0091,464.7501 165.8691,462.1601 162.1491,458.8001 C161.6691,458.3701 161.1891,457.9301 160.7191,457.4801 C158.8591,455.3601 156.8691,453.3901 154.7391,451.7201 C153.9191,450.8901 153.1091,450.0501 152.2991,449.2101 C145.5691,442.1601 139.2091,434.7501 133.5591,426.8101 C128.0791,419.1101 123.1291,411.0701 118.4191,402.8801 C113.6291,394.5501 110.4591,385.3601 105.6791,377.0901 C105.2691,376.3801 104.2291,376.2401 103.6491,376.8301 C102.1691,378.3601 101.2191,380.0601 101.3991,381.8501 L100.6591,381.9601 C100.3791,379.2601 97.8891,377.0601 94.5091,377.6501 C89.4491,378.5301 85.2891,378.8601 80.9091,377.1801 C81.6791,372.0701 82.3891,366.9501 83.0891,361.8201 C84.3691,352.3801 85.5591,342.9101 86.5791,333.4401 C89.0491,334.0301 91.4991,334.8801 93.8991,335.9601 C97.3191,337.4901 100.5491,339.5501 103.3091,342.0801 C106.0291,344.5801 107.9091,347.9501 111.2291,349.6901 C115.0491,351.6801 119.6591,348.3901 118.5391,344.0701 C116.2691,335.3401 103.4191,330.3401 95.4691,328.6901 C92.7391,328.1201 89.9491,327.8801 87.1591,327.9401 C87.7891,321.8601 88.3491,315.7801 88.8091,309.6901 C89.0291,306.8101 89.2291,303.9301 89.4191,301.0401 C95.5991,299.1701 102.2191,298.6101 108.6491,299.4901 C110.7691,301.1801 112.8891,302.8501 114.9391,304.5401 C121.4491,309.9201 127.9291,315.3301 134.3291,320.8401 C134.9091,321.3301 135.4791,321.8201 136.0591,322.3201 C139.8591,325.5901 144.5991,322.3501 143.9591,317.7201 C138.7391,279.7801 161.9791,249.6001 189.1891,226.2201 C219.3091,200.3301 274.0691,197.315396 309.8891,152.4701 C326.3862,155.827691 363.2191,165.8001 378.4191,190.0201 C399.6991,223.9601 396.9191,254.3701 398.5391,292.8701 C400.1591,331.4001 404.2791,371.5901 395.5291,409.5801 C387.4591,444.6101 365.6091,474.5401 331.7091,488.3001 C330.8691,488.6401 330.0191,488.9701 329.1691,489.2901 C311.6391,495.9001 292.5091,497.7701 274.0691,494.2901 C253.6591,490.4301 236.6191,481.0901 219.6391,469.6001 C218.6591,468.9501 217.2291,470.2901 217.9691,471.2701 C240.3491,500.9301 284.3091,510.8401 319.1791,503.0101 C320.8091,502.6401 322.4291,502.2401 324.0391,501.8001 C316.2391,524.2301 317.8091,548.8501 327.9691,570.6901 C334.0791,583.8301 343.3991,595.2001 354.7491,604.1701 C367.2591,614.0501 382.7791,622.0301 391.4591,635.9001 C399.4091,648.6101 397.0491,662.8901 383.4391,670.2301 C380.0091,672.0901 378.6891,678.1001 382.0891,680.7401 C383.3891,681.7401 384.6891,682.7601 386.0191,683.7601 C393.6391,689.5101 414.5691,700.3101 417.9591,700.7101 C448.0591,704.2801 468.2991,682.1801 481.2691,656.1101 C496.4991,625.5101 492.5391,588.2201 475.7591,559.0801 C462.2991,535.7001 435.7891,512.6601 446.3291,483.0701 C450.0891,472.5001 457.7791,463.4901 465.2491,455.3501 C473.7691,446.0801 482.9291,437.4001 491.0991,427.8001 C499.2191,418.2701 506.4191,407.9001 510.4391,395.9401 C516.3091,378.4601 513.3891,359.5601 508.9791,342.1101 C499.5291,304.6501 487.2591,267.6901 474.1891,231.3601 Z" id="🖍-Ink" fill="#000000"></path>
    </g>
        <g id="face/Smile" transform="translate(531.000000, 366.000000)" fill="#000000">
        <path d="M189.0594,229.1111 C195.3794,227.6381 200.3434,232.9901 199.1014,239.1531 C197.7864,245.6771 190.7714,247.9131 184.8894,247.7081 C178.2204,247.4771 171.5564,246.1001 164.8544,245.8231 C157.9694,245.5391 151.0584,245.4871 144.1694,245.6731 C137.7974,245.8451 131.2574,246.9681 124.9354,245.9601 C122.4734,245.5671 122.7064,242.3171 124.3084,241.1621 C129.0644,237.7321 135.2284,236.3341 140.8344,234.8951 C146.5504,233.4271 152.3934,232.3031 158.2554,231.6171 C164.1984,230.9221 170.1904,230.5751 176.1724,230.5071 C178.8954,230.4761 182.2344,231.0811 184.8894,230.5911 C186.2424,230.3401 187.6204,229.4471 189.0594,229.1111 Z M170.814304,144.367155 C178.365682,148.9572 189.871664,159.660291 181.748119,171.039573 C172.185929,181.073062 158.418535,169.568982 151.634201,164.366134 C145.343449,160.333898 138.275437,170.704507 144.112,175.412823 C193.135736,211.708059 213.030606,145.567387 174.633685,138.970386 C170.406047,138.243425 168.835891,142.947174 170.814304,144.367155 Z M116.0593,110.0915 C126.1603,108.4115 127.9273,122.8115 117.9163,123.8175 C115.8153,124.0285 113.7263,124.2125 111.6413,124.3955 C111.8443,125.0475 111.9793,125.7185 112.0533,126.4085 C112.1483,126.9945 112.2193,127.6165 112.2823,128.3275 C112.5993,131.8705 110.0873,135.5545 107.1523,137.2725 C104.1023,139.0575 99.7243,139.2955 96.6953,137.2725 C95.1333,136.2285 93.5733,135.0515 92.7123,133.3255 C91.5573,131.5525 90.9273,129.5005 90.8633,127.3945 C86.2583,128.5905 81.5693,130.2075 76.9183,131.0645 C77.0893,131.2325 77.2573,131.4115 77.4203,131.6085 C77.5443,131.7595 77.3743,132.0425 77.1933,131.9035 L74.8603,131.3865 L74.8603,131.3865 C74.1423,131.4805 73.4243,131.5575 72.7083,131.6025 L72.7253,131.5395 L72.7253,131.5395 C71.5283,131.5185 70.5483,130.1035 71.6193,128.9715 C75.7284316,124.628237 82.1402363,121.74178 87.9859351,119.328363 L93.618224,117.019362 C100.820152,114.092257 108.422685,111.361654 116.0593,110.0915 Z M197.3196,114.5463 C203.9356,113.7913 210.4866,114.0913 217.1136,114.4953 C228.2666,115.1743 223.5886,131.4383 214.6366,127.6833 C214.7286,128.2783 214.7526,128.8743 214.6836,129.4293 C214.3336,132.2883 213.4016,134.7043 210.7776,136.2403 C208.3406,137.6663 205.2516,137.6623 202.8146,136.2403 C200.2046,134.7183 199.0276,132.5733 198.3616,129.7863 C197.8456,127.6253 198.0526,125.8173 198.3506,123.6773 C198.4496,122.9683 198.7586,122.3073 199.1866,121.7133 C198.5626,121.5573 197.9376,121.4063 197.3116,121.2653 C191.7456,119.9993 186.2546,120.2533 180.7046,119.4513 C180.1126,119.3653 180.0186,118.4093 180.5366,118.1663 C185.5236,115.8233 191.8636,115.1683 197.3196,114.5463 Z M115.0395,64.3154 C118.8575,62.8584 123.6535,65.2814 125.6025,68.6144 C127.8145,72.3964 126.8695,76.7624 124.1395,79.9494 C119.951684,84.8382684 111.976365,87.8499762 106.098381,90.639663 L105.6265,90.8654 C99.5905,93.7774 93.3895,96.4514 87.1045,98.7814 C80.9235,101.0744 74.4935,102.8704 68.0855,104.4124 C64.7065,105.2254 61.2555,105.8974 57.8025,106.3214 C55.0765,106.6554 52.9745,105.9074 50.3665,105.9074 C49.9855,105.9084 49.8665,105.4034 50.1775,105.2094 C52.6145,103.6774 54.4235,101.6604 57.0815,100.2414 C59.8495,98.7644 62.6275,97.3124 65.4155,95.8744 C71.0525,92.9684 76.4805,89.7344 81.9185,86.4794 C87.6505,83.0484 93.2525,79.4354 98.7005,75.5674 C104.0315,71.7824 108.9445,66.6404 115.0395,64.3154 Z M183.0763,61.2035 C187.8443,60.2785 192.5663,62.5345 193.9773,67.3935 C195.3303,72.0485 193.9153,73.0465 197.5243,76.3775 C200.401223,79.0321154 203.502998,81.4015237 206.633449,83.7347007 L211.240945,87.1599199 C219.586327,93.3374333 228.0007,99.1782333 237.5963,103.3465 C238.4073,103.6985 237.9383,104.9035 237.1693,104.9195 C221.9153,105.2135 207.2883,103.1485 193.5193,96.3195 C187.0873,93.1295 180.6253,89.0945 176.8983,82.7265 C172.5813,75.3525 172.7073,63.2135 183.0763,61.2035 Z" id="🖍-Ink" fill="#000000"></path>
    </g>
        <g id="facial-hair/*-None" transform="translate(494.999934, 517.999659)"></g>
        <g id="accessories/*-None" transform="translate(419.000000, 421.000000)"></g>
    </g>
</svg>